<svg xmlns="http://www.w3.org/2000/svg" width="3678.0" height="140"><polygon stroke="red" stroke-width="0" points="343 5.0 343 15.0 10 15.0 10 5.0 343 5.0" fill="#4C72B7"/><polygon stroke="red" stroke-width="0" points="343 0 403 0 403 20 343 20 343 0" fill="#4C72B7"/><polygon stroke="red" stroke-width="0" points="408.0 0 552.0 0 552.0 20 408.0 20 408.0 0" fill="#4C72B7"/><polygon stroke="red" stroke-width="0" points="557.0 0 641.0 0 641.0 20 557.0 20 557.0 0" fill="#4C72B7"/><polygon stroke="red" stroke-width="0" points="646.0 0 837.0 0 827.0 10.0 837.0 20 646.0 20 646.0 0" fill="#4C72B7"/><polygon stroke="red" stroke-width="0" points="842.0 0 949.0 0 959.0 10.0 949.0 20 842.0 20 832.0 10.0 842.0 0" fill="#4C72B7"/><polygon stroke="red" stroke-width="0" points="954.0 0 1022.0 0 1022.0 20 954.0 20 964.0 10.0 954.0 0" fill="#4C72B7"/><polygon stroke="red" stroke-width="0" points="1027.0 0 1103.0 0 1113.0 10.0 1103.0 20 1027.0 20 1027.0 0" fill="#4C72B7"/><polygon stroke="red" stroke-width="0" points="1108.0 0 1266.0 0 1266.0 20 1108.0 20 1118.0 10.0 1108.0 0" fill="#4C72B7"/><polygon stroke="red" stroke-width="0" points="1271.0 0 1445.0 0 1445.0 20 1271.0 20 1271.0 0" fill="#4C72B7"/><polygon stroke="red" stroke-width="0" points="1450.0 0 1573.0 0 1573.0 20 1450.0 20 1450.0 0" fill="#4C72B7"/><polygon stroke="red" stroke-width="0" points="1578.0 0 1653.0 0 1653.0 20 1578.0 20 1578.0 0" fill="#4C72B7"/><polygon stroke="red" stroke-width="0" points="1658.0 0 1790.0 0 1790.0 20 1658.0 20 1658.0 0" fill="#4C72B7"/><polygon stroke="red" stroke-width="0" points="1795.0 0 1930.0 0 1930.0 20 1795.0 20 1795.0 0" fill="#4C72B7"/><polygon stroke="red" stroke-width="0" points="1935.0 0 2049.0 0 2049.0 20 1935.0 20 1935.0 0" fill="#4C72B7"/><polygon stroke="red" stroke-width="0" points="2054.0 0 2134.0 0 2124.0 10.0 2134.0 20 2054.0 20 2054.0 0" fill="#4C72B7"/><polygon stroke="red" stroke-width="0" points="2139.0 0 2263.0 0 2263.0 20 2139.0 20 2129.0 10.0 2139.0 0" fill="#4C72B7"/><polygon stroke="red" stroke-width="0" points="2268.0 0 2424.0 0 2424.0 20 2268.0 20 2268.0 0" fill="#4C72B7"/><polygon stroke="red" stroke-width="0" points="2429.0 0 2679.0 0 2689.0 10.0 2679.0 20 2429.0 20 2429.0 0" fill="#4C72B7"/><polygon stroke="red" stroke-width="0" points="2684.0 0 2758.0 0 2758.0 20 2684.0 20 2694.0 10.0 2684.0 0" fill="#4C72B7"/><polygon stroke="red" stroke-width="0" points="2763.0 0 2847.0 0 2847.0 20 2763.0 20 2763.0 0" fill="#4C72B7"/><polygon stroke="red" stroke-width="0" points="10 40 451 40 451 60 10 60 10 40" fill="#4C72B7"/><polygon stroke="red" stroke-width="0" points="456.0 40 596.0 40 586.0 50.0 596.0 60 456.0 60 456.0 40" fill="#4C72B7"/><polygon stroke="red" stroke-width="0" points="601.0 40 724.0 40 714.0 50.0 724.0 60 601.0 60 591.0 50.0 601.0 40" fill="#4C72B7"/><polygon stroke="red" stroke-width="0" points="729.0 40 813.0 40 803.0 50.0 813.0 60 729.0 60 719.0 50.0 729.0 40" fill="#4C72B7"/><polygon stroke="red" stroke-width="0" points="818.0 40 935.0 40 925.0 50.0 935.0 60 818.0 60 808.0 50.0 818.0 40" fill="#4C72B7"/><polygon stroke="red" stroke-width="0" points="940.0 40 1122.0 40 1132.0 50.0 1122.0 60 940.0 60 930.0 50.0 940.0 40" fill="#4C72B7"/><polygon stroke="red" stroke-width="0" points="1127.0 40 1339.0 40 1339.0 60 1127.0 60 1137.0 50.0 1127.0 40" fill="#4C72B7"/><polygon stroke="red" stroke-width="0" points="1344.0 40 1506.0 40 1506.0 60 1344.0 60 1344.0 40" fill="#4C72B7"/><polygon stroke="red" stroke-width="0" points="1511.0 40 1615.0 40 1605.0 50.0 1615.0 60 1511.0 60 1511.0 40" fill="#4C72B7"/><polygon stroke="red" stroke-width="0" points="1620.0 40 1756.0 40 1756.0 60 1620.0 60 1610.0 50.0 1620.0 40" fill="#4C72B7"/><polygon stroke="red" stroke-width="0" points="1761.0 40 1824.0 40 1824.0 60 1761.0 60 1761.0 40" fill="#4C72B7"/><polygon stroke="red" stroke-width="0" points="1829.0 40 1988.0 40 1988.0 60 1829.0 60 1829.0 40" fill="#4C72B7"/><polygon stroke="red" stroke-width="0" points="1993.0 40 2091.0 40 2081.0 50.0 2091.0 60 1993.0 60 1993.0 40" fill="#4C72B7"/><polygon stroke="red" stroke-width="0" points="2096.0 40 2243.0 40 2233.0 50.0 2243.0 60 2096.0 60 2086.0 50.0 2096.0 40" fill="#4C72B7"/><polygon stroke="red" stroke-width="0" points="2248.0 40 2395.0 40 2385.0 50.0 2395.0 60 2248.0 60 2238.0 50.0 2248.0 40" fill="#4C72B7"/><polygon stroke="red" stroke-width="0" points="2400.0 40 2511.0 40 2501.0 50.0 2511.0 60 2400.0 60 2390.0 50.0 2400.0 40" fill="#4C72B7"/><polygon stroke="red" stroke-width="0" points="2516.0 40 2949.0 40 2949.0 60 2516.0 60 2506.0 50.0 2516.0 40" fill="#4C72B7"/><polygon stroke="red" stroke-width="0" points="10 80 351 80 341.0 90.0 351 100 10 100 10 80" fill="#4C72B7"/><polygon stroke="red" stroke-width="0" points="356.0 80 559.0 80 569.0 90.0 559.0 100 356.0 100 346.0 90.0 356.0 80" fill="#4C72B7"/><polygon stroke="red" stroke-width="0" points="564.0 80 758.0 80 758.0 100 564.0 100 574.0 90.0 564.0 80" fill="#4C72B7"/><polygon stroke="red" stroke-width="0" points="763.0 80 904.0 80 904.0 100 763.0 100 763.0 80" fill="#4C72B7"/><polygon stroke="red" stroke-width="0" points="909.0 80 1189.0 80 1199.0 90.0 1189.0 100 909.0 100 909.0 80" fill="#4C72B7"/><polygon stroke="red" stroke-width="0" points="1194.0 80 1409.0 80 1409.0 100 1194.0 100 1204.0 90.0 1194.0 80" fill="#4C72B7"/><polygon stroke="red" stroke-width="0" points="1414.0 80 1476.0 80 1466.0 90.0 1476.0 100 1414.0 100 1414.0 80" fill="#4C72B7"/><polygon stroke="red" stroke-width="0" points="1481.0 80 1596.0 80 1596.0 100 1481.0 100 1471.0 90.0 1481.0 80" fill="#4C72B7"/><polygon stroke="red" stroke-width="0" points="1601.0 80 1703.0 80 1703.0 100 1601.0 100 1601.0 80" fill="#4C72B7"/><polygon stroke="red" stroke-width="0" points="1708.0 80 1849.0 80 1849.0 100 1708.0 100 1708.0 80" fill="#4C72B7"/><polygon stroke="red" stroke-width="0" points="1854.0 80 1981.0 80 1991.0 90.0 1981.0 100 1854.0 100 1854.0 80" fill="#4C72B7"/><polygon stroke="red" stroke-width="0" points="1986.0 80 2118.0 80 2128.0 90.0 2118.0 100 1986.0 100 1996.0 90.0 1986.0 80" fill="#4C72B7"/><polygon stroke="red" stroke-width="0" points="2123.0 80 2259.0 80 2249.0 90.0 2259.0 100 2123.0 100 2133.0 90.0 2123.0 80" fill="#4C72B7"/><polygon stroke="red" stroke-width="0" points="2264.0 80 2422.0 80 2432.0 90.0 2422.0 100 2264.0 100 2254.0 90.0 2264.0 80" fill="#4C72B7"/><polygon stroke="red" stroke-width="0" points="2427.0 80 2550.0 80 2560.0 90.0 2550.0 100 2427.0 100 2437.0 90.0 2427.0 80" fill="#4C72B7"/><polygon stroke="red" stroke-width="0" points="2555.0 80 2686.0 80 2686.0 100 2555.0 100 2565.0 90.0 2555.0 80" fill="#4C72B7"/><polygon stroke="red" stroke-width="0" points="2691.0 80 2792.0 80 2782.0 90.0 2792.0 100 2691.0 100 2691.0 80" fill="#4C72B7"/><polygon stroke="red" stroke-width="0" points="2797.0 80 2940.0 80 2950.0 90.0 2940.0 100 2797.0 100 2787.0 90.0 2797.0 80" fill="#4C72B7"/><polygon stroke="red" stroke-width="0" points="2945.0 80 2992.0 80 2992.0 100 2945.0 100 2955.0 90.0 2945.0 80" fill="#4C72B7"/><polygon stroke="red" stroke-width="0" points="2997.0 80 3214.0 80 3224.0 90.0 3214.0 100 2997.0 100 2997.0 80" fill="#4C72B7"/><polygon stroke="red" stroke-width="0" points="3673 125.0 3673 135.0 153 135.0 153 125.0 3673 125.0" fill="#4C72B7"/><polygon stroke="red" stroke-width="0" points="10 120 153 120 153 140 10 140 20.0 130.0 10 120" fill="#4C72B7"/></svg>
