<svg xmlns="http://www.w3.org/2000/svg" width="3371" height="150"><polygon stroke="red" stroke-width="0" points="166 37.5 166 112.5 10 112.5 10 37.5 166 37.5" fill="#4C72B7"/><polygon stroke="red" stroke-width="0" points="166 0 170 0 245.0 75.0 170 150 166 150 166 0" fill="#4C72B7"/><polygon stroke="red" stroke-width="0" points="220 0 407 0 332.0 75.0 407 150 220 150 295.0 75.0 220 0" fill="#4C72B7"/><polygon stroke="red" stroke-width="0" points="457 0 719 0 719 150 457 150 382.0 75.0 457 0" fill="#4C72B7"/><polygon stroke="red" stroke-width="0" points="769 0 938 0 1013.0 75.0 938 150 769 150 769 0" fill="#4C72B7"/><polygon stroke="red" stroke-width="0" points="988 0 1062 0 1062 150 988 150 1063.0 75.0 988 0" fill="#4C72B7"/><polygon stroke="red" stroke-width="0" points="1112 0 1178 0 1178 150 1112 150 1112 0" fill="#4C72B7"/><polygon stroke="red" stroke-width="0" points="3321 37.5 3321 112.5 1300 112.5 1300 37.5 3321 37.5" fill="#4C72B7"/><polygon stroke="red" stroke-width="0" points="1228 0 1300 0 1300 150 1228 150 1228 0" fill="#4C72B7"/></svg>
