<svg xmlns="http://www.w3.org/2000/svg" width="3056.0" height="20"><polygon stroke="red" stroke-width="0" points="166 5.0 166 15.0 10 15.0 10 5.0 166 5.0" fill="#4C72B7"/><polygon stroke="red" stroke-width="0" points="166 0 170 0 180.0 10.0 170 20 166 20 166 0" fill="#4C72B7"/><polygon stroke="red" stroke-width="0" points="175.0 0 362.0 0 352.0 10.0 362.0 20 175.0 20 185.0 10.0 175.0 0" fill="#4C72B7"/><polygon stroke="red" stroke-width="0" points="367.0 0 629.0 0 629.0 20 367.0 20 357.0 10.0 367.0 0" fill="#4C72B7"/><polygon stroke="red" stroke-width="0" points="634.0 0 803.0 0 813.0 10.0 803.0 20 634.0 20 634.0 0" fill="#4C72B7"/><polygon stroke="red" stroke-width="0" points="808.0 0 882.0 0 882.0 20 808.0 20 818.0 10.0 808.0 0" fill="#4C72B7"/><polygon stroke="red" stroke-width="0" points="887.0 0 953.0 0 953.0 20 887.0 20 887.0 0" fill="#4C72B7"/><polygon stroke="red" stroke-width="0" points="3051.0 5.0 3051.0 15.0 1030.0 15.0 1030.0 5.0 3051.0 5.0" fill="#4C72B7"/><polygon stroke="red" stroke-width="0" points="958.0 0 1030.0 0 1030.0 20 958.0 20 958.0 0" fill="#4C72B7"/></svg>
